PathFileType	4	(x/y/z)	S01_SL_Cal.trc
DataRate	CameraRate	NumFrames	NumMarkers	Units	OrigDataRate	OrigDataStartFrame	OrigNumFrames
240	240	5	51	mm	240	1201	2400
Frame#	Time	Sternum			R.Acromium			L.Acromium			Top.Head			R.ASIS			L.ASIS			R.PSIS			L.PSIS			R.Great.Tro			L.Great.Tro			R.Iliac.Crest			L.Iliac.Crest			V.Sacral			R.Thigh.Upper.Post			R.Thigh.Lower.Ant			R.Thigh.Lower.Post			R.Thigh.Upper.Ant			R.Knee.Lat			R.Knee.Med			R.Shank.Upper.Post			R.Shank.Lower.Ant			R.Shank.Lower.Post			R.Shank.Upper.Ant			R.Ankle.Lat			R.Ankle.Med			R.Heel.Upper			R.Heel.Med			R.Heel.Lat			R.Toe.Lat			R.Toe.Med			R.Toe.Tip			L.Thigh.Upper.Post			L.Thigh.Lower.Ant			L.Thigh.Lower.Post			L.Thigh.Upper.Ant			L.Knee.Lat			L.Knee.Med			L.Shank.Upper.Post			L.Shank.Lower.Ant			L.Shank.Lower.Post			L.Shank.Upper.Ant			L.Ankle.Lat			L.Ankle.Med			L.Heel.Upper			L.Heel.Med			L.Heel.Lat			L.Toe.Lat			L.Toe.Med			L.Toe.Tip			Cervical.Spine			Back			
		X1	Y1	Z1	X2	Y2	Z2	X3	Y3	Z3	X4	Y4	Z4	X5	Y5	Z5	X6	Y6	Z6	X7	Y7	Z7	X8	Y8	Z8	X9	Y9	Z9	X10	Y10	Z10	X11	Y11	Z11	X12	Y12	Z12	X13	Y13	Z13	X14	Y14	Z14	X15	Y15	Z15	X16	Y16	Z16	X17	Y17	Z17	X18	Y18	Z18	X19	Y19	Z19	X20	Y20	Z20	X21	Y21	Z21	X22	Y22	Z22	X23	Y23	Z23	X24	Y24	Z24	X25	Y25	Z25	X26	Y26	Z26	X27	Y27	Z27	X28	Y28	Z28	X29	Y29	Z29	X30	Y30	Z30	X31	Y31	Z31	X32	Y32	Z32	X33	Y33	Z33	X34	Y34	Z34	X35	Y35	Z35	X36	Y36	Z36	X37	Y37	Z37	X38	Y38	Z38	X39	Y39	Z39	X40	Y40	Z40	X41	Y41	Z41	X42	Y42	Z42	X43	Y43	Z43	X44	Y44	Z44	X45	Y45	Z45	X46	Y46	Z46	X47	Y47	Z47	X48	Y48	Z48	X49	Y49	Z49	X50	Y50	Z50	X51	Y51	Z51	

1201	5	724.44	1313.6	260.46	579.88	1554.4	441.52	536.31	1563.6	116.86	516.96	1868.4	279.83	704.17	1046.4	420.23	695.77	1046.7	149.47	462.94	1079.4	334.32	456.92	1077.9	231.01	624.27	991.81	502.55	582.26	995.42	74.61	610.13	1142.3	485.57	577.26	1124.9	81.256	447.88	1041.9	281.14	582.72	694.26	497.66	642.9	614.84	472.55	574.88	606.07	482.01	654.48	704.16	487.54	589.45	536.83	478.04	593.67	527.12	336.01	508.89	389.89	514.03	559.51	296.59	481.2	495.75	319.68	508.49	568.81	369.19	492.37	475.76	111.44	490.23	508.88	109.56	398.44	408.35	77.841	435.92	420.03	46.827	407.26	416.47	48.439	471.86	605.07	34.301	529.02	636.39	40.004	405.77	699.85	54.962	460.94	517.76	725.68	85.881	592.06	645.08	73.302	517.05	635.02	96.47	583.94	739.8	61.07	551.63	541.25	80.25	586.47	529.13	216.89	480.81	411	56.729	537.84	316.07	66.789	476.8	333.21	53.477	542.65	393.02	65.09	458.73	112.24	75.504	491.13	118.1	168.7	390.85	78.724	120.46	401.64	51.32	152.7	398.78	52.989	90.782	602.58	37.558	41.692	628.34	47.061	163.35	689.92	58.354	112.48	475.22	1597.6	288.19	421.78	1277.8	306.58
1202	5.0042	724.45	1313.6	260.46	579.87	1554.4	441.52	536.36	1563.6	116.86	517.02	1868.4	279.84	704.16	1046.4	420.24	695.78	1046.7	149.47	462.93	1079.4	334.31	456.91	1077.9	231	624.26	991.81	502.54	582.26	995.42	74.606	610.11	1142.3	485.57	577.26	1124.9	81.248	447.87	1041.9	281.13	582.7	694.26	497.66	642.89	614.84	472.56	574.86	606.07	482.02	654.47	704.17	487.55	589.43	536.84	478.04	593.66	527.12	336.01	508.88	389.89	514.03	559.5	296.6	481.2	495.74	319.68	508.49	568.8	369.2	492.37	475.76	111.44	490.23	508.88	109.56	398.44	408.35	77.842	435.92	420.03	46.828	407.26	416.47	48.44	471.86	605.07	34.301	529.02	636.39	40.004	405.77	699.85	54.962	460.94	517.76	725.68	85.877	592.06	645.08	73.302	517.05	635.02	96.468	583.95	739.8	61.069	551.64	541.25	80.249	586.47	529.13	216.89	480.81	411	56.727	537.84	316.07	66.788	476.81	333.21	53.476	542.65	393.02	65.088	458.73	112.24	75.504	491.13	118.1	168.7	390.85	78.725	120.46	401.64	51.32	152.7	398.78	52.99	90.781	602.58	37.559	41.692	628.34	47.06	163.35	689.92	58.353	112.48	475.22	1597.6	288.19	421.78	1277.8	306.57
1203	5.0083	724.46	1313.6	260.46	579.87	1554.4	441.51	536.42	1563.6	116.85	517.07	1868.4	279.85	704.15	1046.4	420.24	695.79	1046.7	149.47	462.92	1079.4	334.3	456.9	1077.9	230.99	624.24	991.82	502.54	582.27	995.41	74.602	610.09	1142.3	485.57	577.27	1124.9	81.24	447.86	1041.9	281.12	582.69	694.26	497.66	642.87	614.85	472.56	574.85	606.08	482.02	654.45	704.17	487.55	589.42	536.84	478.04	593.65	527.12	336.01	508.87	389.89	514.03	559.5	296.6	481.21	495.73	319.68	508.49	568.79	369.2	492.37	475.76	111.44	490.23	508.88	109.56	398.44	408.35	77.843	435.92	420.03	46.829	407.26	416.47	48.441	471.86	605.07	34.301	529.02	636.39	40.004	405.77	699.85	54.961	460.94	517.77	725.68	85.872	592.07	645.08	73.302	517.06	635.02	96.465	583.95	739.8	61.068	551.64	541.25	80.248	586.47	529.13	216.89	480.81	411	56.726	537.84	316.07	66.788	476.81	333.21	53.474	542.65	393.02	65.087	458.73	112.24	75.504	491.13	118.1	168.7	390.85	78.726	120.46	401.64	51.321	152.7	398.78	52.99	90.781	602.58	37.559	41.692	628.34	47.059	163.35	689.93	58.353	112.48	475.22	1597.6	288.18	421.77	1277.8	306.56
1204	5.0125	724.46	1313.6	260.46	579.86	1554.4	441.51	536.49	1563.7	116.84	517.11	1868.4	279.86	704.14	1046.4	420.24	695.8	1046.7	149.47	462.9	1079.4	334.28	456.9	1077.9	230.97	624.22	991.82	502.54	582.28	995.41	74.598	610.08	1142.3	485.57	577.27	1124.9	81.231	447.85	1041.9	281.11	582.67	694.27	497.66	642.86	614.85	472.56	574.83	606.08	482.02	654.44	704.17	487.56	589.41	536.85	478.04	593.64	527.12	336.01	508.86	389.89	514.03	559.49	296.6	481.21	495.72	319.68	508.49	568.79	369.2	492.37	475.76	111.44	490.23	508.88	109.56	398.44	408.35	77.843	435.92	420.03	46.83	407.26	416.47	48.441	471.86	605.07	34.301	529.02	636.39	40.004	405.77	699.85	54.96	460.94	517.77	725.68	85.868	592.08	645.09	73.302	517.06	635.02	96.463	583.96	739.8	61.068	551.65	541.25	80.248	586.48	529.13	216.89	480.82	411	56.724	537.85	316.07	66.787	476.81	333.21	53.473	542.66	393.02	65.086	458.73	112.24	75.506	491.13	118.1	168.7	390.85	78.727	120.46	401.64	51.321	152.7	398.78	52.991	90.781	602.58	37.56	41.692	628.34	47.057	163.35	689.93	58.352	112.48	475.23	1597.6	288.18	421.77	1277.9	306.55
1205	5.0167	724.47	1313.6	260.45	579.85	1554.4	441.51	536.56	1563.7	116.82	517.16	1868.4	279.87	704.13	1046.4	420.25	695.81	1046.7	149.47	462.89	1079.4	334.27	456.9	1077.9	230.96	624.2	991.82	502.53	582.28	995.41	74.594	610.06	1142.3	485.57	577.27	1124.9	81.223	447.85	1041.9	281.1	582.65	694.27	497.66	642.84	614.85	472.57	574.82	606.08	482.02	654.42	704.18	487.56	589.4	536.85	478.04	593.64	527.12	336.01	508.85	389.89	514.03	559.48	296.6	481.21	495.72	319.68	508.49	568.78	369.2	492.37	475.76	111.44	490.23	508.88	109.56	398.44	408.35	77.844	435.92	420.03	46.831	407.26	416.47	48.442	471.86	605.07	34.301	529.02	636.39	40.005	405.77	699.85	54.959	460.94	517.78	725.68	85.863	592.08	645.09	73.303	517.07	635.02	96.46	583.96	739.8	61.068	551.65	541.25	80.247	586.48	529.13	216.89	480.82	411	56.723	537.85	316.07	66.787	476.82	333.21	53.471	542.66	393.02	65.085	458.73	112.24	75.507	491.13	118.1	168.7	390.85	78.729	120.46	401.64	51.321	152.7	398.78	52.992	90.782	602.58	37.56	41.692	628.34	47.056	163.35	689.93	58.351	112.48	475.23	1597.6	288.17	421.77	1277.9	306.54
